<?xml version="1.0" encoding="UTF-8"?>
<svg id="_レイヤー_2" data-name="レイヤー 2" xmlns="http://www.w3.org/2000/svg" viewBox="0 0 367.91 42.7">
  <defs>
    <style>
      .cls-1 {
        fill: #4d4d4d;
      }
    </style>
  </defs>
  <g id="_レイヤー_2-2" data-name="レイヤー 2">
    <g>
      <path class="cls-1" d="M32.12,1c5.71,0,10.36,4.02,10.36,8.95,0,3.42-2.42,14.3-3.53,17.19-.59,1.55-1.1,3.12-1.58,4.63-1.97,6.16-3.39,9.93-7.64,9.93h-.18c-.36-.25-.54-2.05-.65-3.24-.38-3.78-.94-9.5-7.09-9.92-.23-.02-.44-.02-.65-.02-5.47,0-5.92,4.91-6.24,8.5-.32,3.52-.65,4.69-1.99,4.69-4.33,0-8.63-11.42-10.47-19.1-.75-3.13-1.46-9.28-1.46-12.65C1,5.02,5.65,1,11.36,1c2,0,3.05,.56,4.27,1.2,1.41,.74,3,1.59,6.07,1.69,.17,0,.34,0,.5,0,2.87,0,4.42-.87,5.78-1.64,1.19-.67,2.21-1.25,4.13-1.25m0-1c-4.49,0-4.84,2.9-9.91,2.9-.15,0-.31,0-.47,0-5.52-.18-5.75-2.89-10.38-2.89C5.09,0,0,4.46,0,9.95c0,3.46,.74,9.75,1.49,12.88,1.37,5.71,5.8,19.86,11.44,19.87h0c5.51,0-.05-13.19,8.23-13.19,.19,0,.38,0,.59,.02,8.56,.59,4.58,13.09,7.8,13.17,.06,0,.13,0,.19,0,6.56,0,7.36-7.91,10.15-15.21,1.14-2.97,3.59-14.01,3.59-17.54,0-5.5-5.09-9.95-11.36-9.95h0Z"/>
      <circle class="cls-1" cx="16.69" cy="11.04" r="1.45"/>
      <circle class="cls-1" cx="25.62" cy="11.04" r="1.45"/>
      <path class="cls-1" d="M29.48,18.07c-.95,1.52-3.96,2.91-7.97,2.91s-7.02-1.39-7.97-2.91h15.94m1.32-1H12.22c0,2.71,4.16,4.91,9.29,4.91s9.29-2.2,9.29-4.91h0Z"/>
      <g>
        <path class="cls-1" d="M58.01,25.24c-4.28-2.16-5.72-3.96-5.72-7.63s3.24-6.48,8.06-6.48c1.58,0,2.63,.25,3.64,.5,1.12,.29,2.38,.29,3.56,.11,0,1.84,.25,4.18,.4,6.08,0,.18,0,.29-.36,.36-.4,.07-.47-.04-.54-.22-1.4-3.31-3.64-5.69-6.51-5.69-2.45,0-4.32,1.76-4.32,4.54,0,1.62,.97,3.13,4,4.61l1.94,.94c5.11,2.48,6.91,4.1,6.91,8.39,0,4.86-3.56,7.78-9.61,7.78-2.52,0-4.9-.54-6.91-1.26-.54-1.98-1.01-4.25-1.26-6.01-.04-.25-.04-.5,.4-.58,.4-.07,.54,.04,.61,.22,1.62,3.64,4.43,6.48,7.56,6.48s5.22-2.16,5.22-5.18c0-2.74-1.62-4.14-5.26-6.01l-1.8-.94Z"/>
        <path class="cls-1" d="M72.12,23.62c-.36,.04-.43,0-.47-.4-.04-.43,.04-.47,.4-.54,1.48-.32,4-1.01,5.76-1.58,.22,0,.4,.14,.4,.29-.04,1.04-.07,2.12-.07,3.02,1.15-2.2,3.2-3.42,5.08-3.42,2.05,0,4.32,.9,5.15,3.56,1.33-2.3,3.13-3.56,5.62-3.56,1.12,0,5.11,.58,5.11,5.15,0,1.33-.04,3.13-.04,4v2.48c0,2.16,0,3.28,.25,3.82,.29,.54,1.04,.58,2.02,.68,.22,.04,.29,.07,.29,.4,0,.36-.04,.43-.29,.43-1.26,0-2.74-.11-3.96-.11s-2.77,.07-4.18,.11c-.29,0-.32-.07-.32-.43s.07-.4,.32-.4c1.01-.11,1.58-.11,1.87-.68s.29-1.73,.29-3.82v-4.9c0-1.04,.04-1.98-.4-3.1-.4-1.08-1.15-1.8-2.52-1.8s-2.41,.9-3.1,2.05c-.65,1.04-.76,1.69-.76,2.81v4.93c0,2.16,0,3.28,.25,3.82s.97,.58,2.05,.68c.22,.04,.25,.11,.25,.43s-.04,.4-.29,.4c-1.37-.04-2.81-.11-3.96-.11-1.3,0-2.77,.07-4.1,.11-.29,0-.32-.07-.32-.43,0-.32,.07-.4,.32-.4,.97-.07,1.55-.11,1.83-.68,.29-.58,.29-1.73,.29-3.82v-4.9c0-1.04,.07-1.98-.4-3.1-.43-1.12-1.22-1.8-2.56-1.8s-2.34,.9-3.02,2.05c-.65,1.08-.79,1.73-.79,2.88v4.86c0,2.16-.04,3.28,.22,3.82,.25,.58,1.01,.58,2.02,.68,.22,.04,.29,.11,.29,.47,0,.32-.07,.36-.29,.36-1.26-.04-2.77-.11-4-.11s-2.7,.07-4.03,.11c-.25,0-.32-.07-.32-.4s.07-.4,.32-.43c1.01-.11,1.58-.11,1.91-.68s.25-1.73,.25-3.82v-5.33c0-1.3,0-2.34-.25-2.99-.22-.61-.58-.83-1.26-.76l-.86,.07Z"/>
        <path class="cls-1" d="M105.71,27.44c0-1.37-.04-2.38-.18-3.06-.18-.58-.54-.79-1.33-.72l-.94,.07c-.36,.04-.43,.04-.47-.4-.04-.43,0-.47,.4-.54,1.4-.32,4.14-1.08,5.83-1.66,.25,0,.43,.14,.43,.36-.11,2.63-.14,4.64-.14,6.37v4.72c0,2.16,0,3.28,.25,3.85,.29,.54,.9,.54,2.05,.61,.22,.04,.25,.14,.25,.47,0,.36-.04,.43-.25,.43-1.3-.04-2.77-.11-4-.11s-2.84,.07-4.07,.11c-.29,0-.36-.07-.36-.43,0-.32,.07-.47,.32-.47,1.04-.07,1.62-.11,1.91-.61,.36-.61,.29-1.76,.29-3.85v-5.15Zm3.96-13.93c0,1.26-1.22,2.45-2.38,2.45-1.26,0-2.48-1.19-2.48-2.45s1.22-2.41,2.48-2.41c1.15,0,2.38,1.15,2.38,2.41Z"/>
        <path class="cls-1" d="M115.64,16.35c0-1.3-.11-2.34-.25-2.95-.14-.65-.61-.86-1.19-.83l-.97,.07c-.32,.04-.4,0-.43-.4-.04-.43,.04-.47,.36-.54,1.48-.29,4.18-1.01,5.94-1.58,.25,0,.43,.07,.43,.25-.07,2.7-.18,5.33-.18,8.85v13.32c0,2.2-.04,3.31,.25,3.85,.29,.58,.86,.61,2.02,.72,.22,.04,.25,.11,.25,.43,0,.36-.07,.4-.29,.4-1.33-.07-2.74-.11-3.92-.11-1.26,0-2.77,.04-4.1,.11-.32,0-.4-.07-.4-.4s.07-.4,.36-.43c1.12-.11,1.55-.14,1.84-.72,.29-.61,.29-1.73,.29-3.85V16.35Z"/>
        <path class="cls-1" d="M127.74,29.7c0,4.75,2.92,7.13,5.15,7.13s3.67-.79,5-2.59c.11-.14,.25-.18,.36-.18s.22,.07,.32,.14c.14,.11,.29,.25,.29,.36,0,.07-.07,.22-.18,.4-1.66,2.56-3.67,3.56-6.66,3.56-4.97,0-8.32-3.67-8.32-8.64s3.46-8.89,8.35-8.89,6.91,4.18,7.02,6.69c0,.29,0,.36-.18,.61-.18,.22-.32,.18-.54,.18-3.64-.11-7.27-.14-10.47-.07-.07,.32-.14,.68-.14,1.3Zm7.06-2.7c.29-.04,.32-.25,.32-.58-.11-2.02-.97-4.36-3.06-4.36-1.94,0-3.46,2.09-4,5.04,2.52,.07,4.21,.07,6.73-.11Z"/>
        <path class="cls-1" d="M157.04,18.26c0-3.46,0-3.92-.43-4.72-.36-.68-1.22-.72-2.77-.86-.22,0-.29-.04-.29-.47s.04-.5,.29-.5c1.66,.07,3.2,.11,4.93,.11s4.86-.18,7.05-.18c10.04,0,15.37,4.75,15.37,12.92s-5.69,13.5-15.66,13.5c-1.94,0-4.54-.22-6.73-.22-1.69,0-3.24,.04-4.75,.11-.25,0-.32-.04-.32-.43s.07-.43,.32-.47c1.4-.11,2.27-.32,2.63-.94,.4-.72,.36-2.38,.36-4.79v-13.07Zm4.25,13.07c0,2.95,.07,3.67,.58,4.39,.58,.79,1.73,1.12,3.6,1.12,7.13,0,10.98-4.43,10.98-12.13s-3.82-11.81-10.73-11.81c-2.09,0-3.49,.25-3.96,.97-.5,.72-.47,1.84-.47,4.39v13.07Z"/>
        <path class="cls-1" d="M188.43,29.7c0,4.75,2.92,7.13,5.15,7.13s3.67-.79,5-2.59c.11-.14,.25-.18,.36-.18s.22,.07,.32,.14c.14,.11,.29,.25,.29,.36,0,.07-.07,.22-.18,.4-1.66,2.56-3.67,3.56-6.66,3.56-4.97,0-8.32-3.67-8.32-8.64s3.46-8.89,8.35-8.89,6.91,4.18,7.02,6.69c0,.29,0,.36-.18,.61-.18,.22-.32,.18-.54,.18-3.64-.11-7.27-.14-10.47-.07-.07,.32-.14,.68-.14,1.3Zm7.06-2.7c.29-.04,.32-.25,.32-.58-.11-2.02-.97-4.36-3.06-4.36-1.94,0-3.46,2.09-4,5.04,2.52,.07,4.21,.07,6.73-.11Z"/>
        <path class="cls-1" d="M202.01,23.58c-.36,.04-.47,0-.5-.4-.04-.4,.04-.47,.43-.54,1.48-.29,4.07-1.01,5.69-1.58,.22,0,.43,.14,.43,.29-.07,1.01-.07,2.12-.07,3.06,1.26-2.16,3.28-3.42,5.58-3.42,1.08,0,5.25,.58,5.25,5.15,0,1.33-.04,3.13-.04,4v2.48c0,2.16,.04,3.28,.29,3.82s.83,.58,1.87,.68c.22,.04,.29,.11,.29,.43s-.04,.4-.29,.4c-1.33-.04-2.7-.11-3.92-.11s-2.74,.07-4.1,.11c-.25,0-.29-.07-.29-.4,0-.36,.07-.43,.29-.43,.97-.07,1.55-.11,1.84-.68s.29-1.73,.29-3.82v-4.9c0-1.04,.07-1.98-.43-3.1-.47-1.08-1.22-1.8-2.63-1.8-1.3,0-2.56,.9-3.24,2.05-.65,1.08-.76,1.73-.76,2.88v4.86c0,2.16-.04,3.28,.22,3.82,.29,.58,.86,.58,1.98,.68,.25,.04,.32,.07,.32,.43s-.07,.4-.32,.4c-1.26-.04-2.66-.11-3.85-.11-1.3,0-2.77,.07-4.14,.11-.22,0-.25-.07-.25-.4,0-.36,.07-.4,.25-.43,1.04-.11,1.62-.11,1.91-.68s.25-1.73,.25-3.82v-5.33c0-1.33,0-2.38-.25-3.02-.22-.61-.5-.79-1.12-.76l-.97,.07Z"/>
        <path class="cls-1" d="M222.53,23.12c-.32,0-.4-.07-.4-.5,0-.36,.04-.47,.43-.5,1.12-.14,2.38-.79,3.17-1.55,.72-.61,1.51-1.73,1.87-2.56,.11-.29,.22-.36,.61-.36,.43,0,.5,.11,.5,.36-.04,1.19-.11,2.56-.11,3.67,1.62,0,3.6-.04,5.11-.11,.14,0,.18,.11,.14,.25l-.4,1.04c-.04,.14-.18,.25-.36,.25-1.33-.07-3.02-.14-4.57-.14l-.07,9.21c0,2.02,.18,3.02,.68,3.71,.68,.86,1.51,.97,1.94,.97,.83,0,1.58-.36,2.3-.97,.18-.14,.36-.11,.58,.11,.22,.22,.36,.4,.07,.68-1.08,1.08-2.34,1.87-4.36,1.87-1.69,0-2.88-.36-3.78-1.22-.79-.86-1.22-1.98-1.22-4.03,0-1.73,.04-3.35,.07-5.08l.07-5.15-2.3,.04Z"/>
        <path class="cls-1" d="M248.99,33.88c-.04,2.3,.47,3.17,1.3,3.17,.43,0,.65-.04,1.04-.25,.14-.07,.32-.07,.47,.18,.14,.25,.14,.36-.11,.54-.61,.47-1.66,.83-3.06,.83-1.55,0-2.59-.76-3.06-1.94-1.3,1.3-2.56,2.12-5.04,2.12-3.53,0-4.61-2.2-4.61-3.82s.47-2.38,1.22-3.2c1.08-.97,2.38-1.3,4.61-1.98,1.58-.47,2.27-.86,2.81-1.3,.47-.36,.83-.9,.83-1.4v-1.01c0-2.7-.68-3.82-2.16-3.82-.58,0-1.26,.11-1.87,.72-.5,.43-.65,1.12-.65,2.02,0,.97-.9,1.73-2.77,1.73-1.12,0-1.4-.43-1.4-1.15,0-1.69,2.77-4.32,7.2-4.32,5.29,0,5.36,2.56,5.33,5.36l-.07,7.52Zm-3.6-5.08c-.36,.54-.86,.83-2.88,1.58-1.91,.76-2.63,1.94-2.63,3.78s1.3,2.95,2.27,2.95c1.87,0,3.2-1.44,3.2-3.13l.04-5.18Z"/>
        <path class="cls-1" d="M255.07,16.35c0-1.3-.11-2.34-.25-2.95-.14-.65-.61-.86-1.19-.83l-.97,.07c-.32,.04-.4,0-.43-.4-.04-.43,.04-.47,.36-.54,1.48-.29,4.18-1.01,5.94-1.58,.25,0,.43,.07,.43,.25-.07,2.7-.18,5.33-.18,8.85v13.32c0,2.2-.04,3.31,.25,3.85,.29,.58,.86,.61,2.02,.72,.22,.04,.25,.11,.25,.43,0,.36-.07,.4-.29,.4-1.33-.07-2.74-.11-3.92-.11-1.26,0-2.77,.04-4.1,.11-.32,0-.4-.07-.4-.4s.07-.4,.36-.43c1.12-.11,1.55-.14,1.84-.72,.29-.61,.29-1.73,.29-3.85V16.35Z"/>
        <path class="cls-1" d="M298.41,18.33c.04,.29-.07,.43-.36,.5-.36,.07-.43,0-.58-.29-.97-1.87-1.94-3.38-3.24-4.5-1.37-1.15-3.02-1.69-4.61-1.69-5.22,0-9.25,4.9-9.25,12.38,0,6.62,4.07,11.66,9.43,11.66,3.92,0,6.73-1.62,8.85-5,.11-.18,.25-.25,.72-.04,.32,.14,.4,.36,.25,.65-2.09,3.78-5.22,6.52-10.58,6.52-7.92,0-13.64-5.62-13.64-13.71s5.79-13.68,13.79-13.68c1.76,0,3.24,.25,4.57,.58,1.44,.36,2.48,.61,4.03,.4,.14,1.87,.4,4.36,.61,6.23Z"/>
        <path class="cls-1" d="M303.2,16.35c0-1.3-.11-2.34-.25-2.95-.14-.65-.61-.86-1.19-.83l-.97,.07c-.32,.04-.4,0-.43-.4-.04-.43,.04-.47,.36-.54,1.48-.29,4.18-1.01,5.94-1.58,.25,0,.43,.07,.43,.25-.07,2.7-.18,5.33-.18,8.85v13.32c0,2.2-.04,3.31,.25,3.85,.29,.58,.86,.61,2.02,.72,.22,.04,.25,.11,.25,.43,0,.36-.07,.4-.29,.4-1.33-.07-2.74-.11-3.92-.11-1.26,0-2.77,.04-4.1,.11-.32,0-.4-.07-.4-.4s.07-.4,.36-.43c1.12-.11,1.55-.14,1.84-.72,.29-.61,.29-1.73,.29-3.85V16.35Z"/>
        <path class="cls-1" d="M313.43,27.44c0-1.37-.04-2.38-.18-3.06-.18-.58-.54-.79-1.33-.72l-.94,.07c-.36,.04-.43,.04-.47-.4-.04-.43,0-.47,.4-.54,1.4-.32,4.14-1.08,5.83-1.66,.25,0,.43,.14,.43,.36-.11,2.63-.14,4.64-.14,6.37v4.72c0,2.16,0,3.28,.25,3.85,.29,.54,.9,.54,2.05,.61,.22,.04,.25,.14,.25,.47,0,.36-.04,.43-.25,.43-1.3-.04-2.77-.11-4-.11s-2.84,.07-4.07,.11c-.29,0-.36-.07-.36-.43,0-.32,.07-.47,.32-.47,1.04-.07,1.62-.11,1.91-.61,.36-.61,.29-1.76,.29-3.85v-5.15Zm3.96-13.93c0,1.26-1.22,2.45-2.38,2.45-1.26,0-2.48-1.19-2.48-2.45s1.22-2.41,2.48-2.41c1.15,0,2.38,1.15,2.38,2.41Z"/>
        <path class="cls-1" d="M321.49,23.58c-.36,.04-.47,0-.5-.4-.04-.4,.04-.47,.43-.54,1.48-.29,4.07-1.01,5.69-1.58,.22,0,.43,.14,.43,.29-.07,1.01-.07,2.12-.07,3.06,1.26-2.16,3.28-3.42,5.58-3.42,1.08,0,5.25,.58,5.25,5.15,0,1.33-.04,3.13-.04,4v2.48c0,2.16,.04,3.28,.29,3.82s.83,.58,1.87,.68c.22,.04,.29,.11,.29,.43s-.04,.4-.29,.4c-1.33-.04-2.7-.11-3.92-.11s-2.74,.07-4.1,.11c-.25,0-.29-.07-.29-.4,0-.36,.07-.43,.29-.43,.97-.07,1.55-.11,1.84-.68s.29-1.73,.29-3.82v-4.9c0-1.04,.07-1.98-.43-3.1-.47-1.08-1.22-1.8-2.63-1.8-1.3,0-2.56,.9-3.24,2.05-.65,1.08-.76,1.73-.76,2.88v4.86c0,2.16-.04,3.28,.22,3.82,.29,.58,.86,.58,1.98,.68,.25,.04,.32,.07,.32,.43s-.07,.4-.32,.4c-1.26-.04-2.66-.11-3.85-.11-1.3,0-2.77,.07-4.14,.11-.22,0-.25-.07-.25-.4,0-.36,.07-.4,.25-.43,1.04-.11,1.62-.11,1.91-.68s.25-1.73,.25-3.82v-5.33c0-1.33,0-2.38-.25-3.02-.22-.61-.5-.79-1.12-.76l-.97,.07Z"/>
        <path class="cls-1" d="M344.89,27.44c0-1.37-.04-2.38-.18-3.06-.18-.58-.54-.79-1.33-.72l-.94,.07c-.36,.04-.43,.04-.47-.4-.04-.43,0-.47,.4-.54,1.4-.32,4.14-1.08,5.83-1.66,.25,0,.43,.14,.43,.36-.11,2.63-.14,4.64-.14,6.37v4.72c0,2.16,0,3.28,.25,3.85,.29,.54,.9,.54,2.05,.61,.22,.04,.25,.14,.25,.47,0,.36-.04,.43-.25,.43-1.3-.04-2.77-.11-4-.11s-2.84,.07-4.07,.11c-.29,0-.36-.07-.36-.43,0-.32,.07-.47,.32-.47,1.04-.07,1.62-.11,1.91-.61,.36-.61,.29-1.76,.29-3.85v-5.15Zm3.96-13.93c0,1.26-1.22,2.45-2.38,2.45-1.26,0-2.48-1.19-2.48-2.45s1.22-2.41,2.48-2.41c1.15,0,2.38,1.15,2.38,2.41Z"/>
        <path class="cls-1" d="M365.8,21.82c.72,.29,1.44,.83,1.44,1.69,0,1.3-.4,2.38-1.58,2.38-1.08,0-1.73-1.37-2.16-2.23-.43-.79-.97-1.51-1.91-1.51-2.77,0-4.17,3.13-4.17,7.56,0,4.68,2.63,7.05,5,7.05,2.12,0,3.28-.76,4.57-2.52,.18-.29,.36-.25,.65-.04,.29,.18,.32,.32,.22,.54-1.48,2.52-3.6,3.78-6.52,3.78-4.86,0-8.17-3.6-8.17-8.64s3.6-8.89,8.24-8.89c2.12,0,3.42,.4,4.39,.83Z"/>
      </g>
    </g>
  </g>
</svg>