<svg width="30" height="37" viewBox="0 0 30 37" fill="none" xmlns="http://www.w3.org/2000/svg">
<path d="M29.75 15.9966C29.75 17.9999 28.8401 20.3006 27.4416 22.6447C26.0465 24.983 24.1827 27.336 22.3132 29.437C20.4446 31.5371 18.5752 33.38 17.1725 34.6981C16.4714 35.3571 15.8872 35.8845 15.4786 36.247C15.2743 36.4283 15.1139 36.5682 15.0048 36.6628C15.0032 36.6642 15.0016 36.6656 15 36.6669C14.9984 36.6656 14.9968 36.6642 14.9952 36.6628C14.8861 36.5682 14.7257 36.4283 14.5214 36.247C14.1128 35.8845 13.5286 35.3571 12.8275 34.6981C11.4248 33.38 9.5554 31.5371 7.68677 29.437C5.81728 27.336 3.95351 24.983 2.55844 22.6447C1.15994 20.3006 0.25 17.9999 0.25 15.9966C0.25 7.85038 6.8538 1.24658 15 1.24658C23.1462 1.24658 29.75 7.85038 29.75 15.9966Z" stroke="black" stroke-width="0.5"/>
<circle cx="15.15" cy="15.2469" r="5.45" stroke="black" stroke-width="0.5"/>
</svg>
